<?xml version="1.0" encoding="utf-8"?>
<!-- Generator: Adobe Illustrator 25.0.0, SVG Export Plug-In . SVG Version: 6.00 Build 0)  -->
<svg version="1.1" id="Camada_1" xmlns="http://www.w3.org/2000/svg" xmlns:xlink="http://www.w3.org/1999/xlink" x="0px" y="0px"
	 viewBox="0 0 55 55" style="enable-background:new 0 0 55 55;" xml:space="preserve">
<style type="text/css">
	.st0{fill:#F0DB4F;}
	.st1{fill:#FFFFFF;}
</style>
<g>
	<g>
		<g>
			<g>
				<path class="st0" d="M10,48c0-11.7,0-23.3,0-35c11.7,0,23.3,0,35,0c0,11.7,0,23.3,0,35C33.3,48,21.7,48,10,48z M30.8,41.9
					c0.1,0.1,0.1,0.3,0.2,0.4c0.3,0.5,0.7,1,1.1,1.4c0.4,0.4,1,0.8,1.6,1c1.4,0.6,2.8,0.7,4.3,0.5c0.7-0.1,1.4-0.3,2-0.6
					c1.2-0.6,1.9-1.6,2.2-2.8c0.1-0.6,0.1-1.2,0-1.8c-0.1-0.5-0.2-0.9-0.4-1.3c-0.3-0.6-0.7-1.1-1.3-1.6c-0.6-0.4-1.2-0.8-1.8-1.1
					c-0.7-0.3-1.3-0.6-2-0.9c-0.4-0.2-0.8-0.4-1.2-0.7c-0.3-0.2-0.5-0.5-0.5-0.9c0-0.1,0-0.1,0-0.2c-0.1-0.6,0.2-1.1,0.7-1.4
					c0.5-0.3,1.1-0.3,1.6,0c0.5,0.2,0.9,0.6,1.2,1.1c0,0.1,0.1,0.1,0.1,0.2c0.9-0.5,1.7-1.1,2.6-1.6c0,0,0-0.1-0.1-0.1
					c-0.3-0.4-0.5-0.8-0.9-1.2c-0.5-0.6-1.2-0.9-1.9-1.1c-0.8-0.2-1.7-0.3-2.5-0.2c-0.3,0-0.6,0.1-0.9,0.1c-0.4,0.1-0.7,0.3-1.1,0.4
					c-0.9,0.5-1.6,1.2-1.9,2.2c-0.3,0.8-0.3,1.7-0.1,2.6c0.2,0.9,0.6,1.6,1.2,2.3c0.2,0.2,0.5,0.4,0.7,0.6c0.6,0.4,1.2,0.7,1.9,1
					c0.6,0.3,1.2,0.5,1.8,0.8c0.3,0.1,0.5,0.3,0.8,0.5c0.6,0.4,0.8,1,0.6,1.6c-0.1,0.5-0.4,0.8-0.9,1c-0.6,0.3-1.2,0.3-1.9,0.2
					c-0.7-0.1-1.4-0.4-1.9-1c-0.3-0.3-0.5-0.5-0.7-0.8c0,0-0.1-0.1-0.1-0.1C32.6,40.9,31.7,41.4,30.8,41.9z M19.2,42.3
					C19.2,42.3,19.2,42.3,19.2,42.3c0.1,0.3,0.2,0.4,0.3,0.6c0.8,1.3,1.9,2,3.4,2.3c0.9,0.2,1.7,0.1,2.6,0c0.8-0.2,1.6-0.5,2.2-1.1
					c0.5-0.5,0.9-1.2,1.1-1.9c0.2-0.6,0.2-1.3,0.2-2c0-1.2,0-2.3,0-3.5c0-2.3,0-4.6,0-6.9c0-0.2,0-0.4,0-0.6c0,0,0-0.1,0-0.1
					c-0.3,0-3.2,0-3.3,0c0,0.1,0,0.1,0,0.2c0,2.6,0,5.3,0,7.9c0,1,0,2,0,3c0,0.3,0,0.6-0.1,0.9c-0.1,0.6-0.4,1-1,1.1
					c-0.3,0.1-0.6,0.1-0.9,0c-0.4,0-0.7-0.2-1-0.5c-0.1-0.1-0.2-0.1-0.2-0.2c-0.2-0.2-0.4-0.5-0.5-0.8c0-0.1-0.1-0.1-0.1-0.2
					C21,41.2,20.1,41.7,19.2,42.3z"/>
			</g>
		</g>
		<path d="M30.8,41.9c0.9-0.5,1.8-1,2.7-1.5c0,0.1,0.1,0.1,0.1,0.1c0.2,0.3,0.4,0.6,0.7,0.8c0.5,0.5,1.1,0.9,1.9,1
			c0.6,0.1,1.3,0,1.9-0.2c0.5-0.2,0.8-0.5,0.9-1c0.1-0.7,0-1.2-0.6-1.6c-0.2-0.2-0.5-0.3-0.8-0.5c-0.6-0.3-1.2-0.5-1.8-0.8
			c-0.6-0.3-1.3-0.6-1.9-1c-0.3-0.2-0.5-0.3-0.7-0.6c-0.7-0.6-1-1.4-1.2-2.3c-0.2-0.9-0.2-1.7,0.1-2.6c0.4-1,1-1.7,1.9-2.2
			c0.3-0.2,0.7-0.3,1.1-0.4c0.3-0.1,0.6-0.1,0.9-0.1c0.9-0.1,1.7,0,2.5,0.2c0.7,0.2,1.4,0.6,1.9,1.1c0.3,0.4,0.6,0.7,0.9,1.2
			c0,0,0,0.1,0.1,0.1c-0.9,0.5-1.7,1.1-2.6,1.6c0-0.1-0.1-0.1-0.1-0.2c-0.3-0.5-0.7-0.9-1.2-1.1c-0.5-0.2-1.1-0.2-1.6,0
			c-0.5,0.2-0.8,0.8-0.7,1.4c0,0.1,0,0.1,0,0.2c0,0.4,0.2,0.6,0.5,0.9c0.3,0.3,0.7,0.5,1.2,0.7c0.7,0.3,1.3,0.6,2,0.9
			c0.6,0.3,1.3,0.7,1.8,1.1c0.5,0.4,1,0.9,1.3,1.6c0.2,0.4,0.3,0.9,0.4,1.3c0.1,0.6,0.1,1.2,0,1.8c-0.3,1.3-1,2.2-2.2,2.8
			c-0.6,0.3-1.3,0.5-2,0.6c-1.5,0.2-2.9,0.1-4.3-0.5c-0.6-0.2-1.1-0.6-1.6-1c-0.4-0.4-0.8-0.9-1.1-1.4C31,42.2,30.9,42,30.8,41.9z"
			/>
		<path d="M19.2,42.3c0.9-0.5,1.8-1.1,2.7-1.6c0,0.1,0.1,0.1,0.1,0.2c0.2,0.3,0.3,0.6,0.5,0.8c0.1,0.1,0.1,0.2,0.2,0.2
			c0.3,0.3,0.6,0.4,1,0.5c0.3,0,0.6,0,0.9,0c0.6-0.2,0.9-0.5,1-1.1c0.1-0.3,0.1-0.6,0.1-0.9c0-1,0-2,0-3c0-2.6,0-5.3,0-7.9
			c0-0.1,0-0.1,0-0.2c0.1,0,3,0,3.3,0c0,0,0,0.1,0,0.1c0,0.2,0,0.4,0,0.6c0,2.3,0,4.6,0,6.9c0,1.2,0,2.3,0,3.5c0,0.7-0.1,1.3-0.2,2
			c-0.2,0.7-0.5,1.4-1.1,1.9c-0.6,0.6-1.3,1-2.2,1.1c-0.9,0.2-1.7,0.2-2.6,0c-1.5-0.3-2.6-1-3.4-2.3C19.4,42.7,19.4,42.5,19.2,42.3
			C19.2,42.3,19.2,42.3,19.2,42.3z"/>
	</g>
</g>
<g>
	<path class="st1" d="M16.7,3h0.5v2.7C17.2,6.7,16.7,7,16,7c-0.2,0-0.4,0-0.5-0.1l0.1-0.4c0.1,0,0.3,0.1,0.4,0.1
		c0.5,0,0.7-0.2,0.7-1V3z"/>
	<path class="st1" d="M20.1,6.2c0,0.2,0,0.5,0,0.7h-0.5l0-0.4h0C19.4,6.8,19.1,7,18.7,7c-0.6,0-0.9-0.4-0.9-0.8
		c0-0.7,0.6-1.1,1.7-1.1V5.1c0-0.2-0.1-0.7-0.6-0.7c-0.3,0-0.5,0.1-0.7,0.2L18,4.3C18.3,4.1,18.6,4,19,4c0.9,0,1.1,0.6,1.1,1.2V6.2z
		 M19.6,5.5c-0.6,0-1.2,0.1-1.2,0.6c0,0.3,0.2,0.5,0.5,0.5c0.4,0,0.6-0.2,0.7-0.5c0-0.1,0-0.1,0-0.2V5.5z"/>
	<path class="st1" d="M21.1,4.1l0.6,1.6c0.1,0.3,0.2,0.5,0.2,0.7h0c0.1-0.2,0.1-0.5,0.2-0.7l0.6-1.6h0.5l-1.1,2.9h-0.5l-1.1-2.9
		H21.1z"/>
	<path class="st1" d="M25.7,6.2c0,0.2,0,0.5,0,0.7h-0.5l0-0.4h0C25,6.8,24.7,7,24.3,7c-0.6,0-0.9-0.4-0.9-0.8c0-0.7,0.6-1.1,1.7-1.1
		V5.1c0-0.2-0.1-0.7-0.6-0.7c-0.3,0-0.5,0.1-0.7,0.2l-0.1-0.3C23.9,4.1,24.2,4,24.6,4c0.9,0,1.1,0.6,1.1,1.2V6.2z M25.2,5.5
		c-0.6,0-1.2,0.1-1.2,0.6c0,0.3,0.2,0.5,0.5,0.5c0.4,0,0.6-0.2,0.7-0.5c0-0.1,0-0.1,0-0.2V5.5z"/>
	<path class="st1" d="M26.4,6.4c0.2,0.1,0.4,0.2,0.7,0.2c0.4,0,0.6-0.2,0.6-0.4c0-0.2-0.1-0.4-0.5-0.5c-0.5-0.2-0.8-0.5-0.8-0.8
		c0-0.5,0.4-0.8,1-0.8c0.3,0,0.5,0.1,0.7,0.2l-0.1,0.4c-0.1-0.1-0.3-0.2-0.6-0.2c-0.3,0-0.5,0.2-0.5,0.4c0,0.2,0.2,0.3,0.5,0.5
		c0.5,0.2,0.7,0.4,0.7,0.9c0,0.5-0.4,0.9-1.1,0.9c-0.3,0-0.6-0.1-0.8-0.2L26.4,6.4z"/>
	<path class="st1" d="M30.9,6.8C30.7,6.9,30.4,7,30.1,7c-0.9,0-1.4-0.6-1.4-1.5c0-0.9,0.6-1.5,1.5-1.5c0.3,0,0.6,0.1,0.7,0.1
		l-0.1,0.4c-0.1-0.1-0.3-0.1-0.6-0.1c-0.7,0-1,0.5-1,1.1c0,0.7,0.4,1.1,1,1.1c0.3,0,0.5-0.1,0.6-0.1L30.9,6.8z"/>
	<path class="st1" d="M31.5,5c0-0.3,0-0.6,0-0.9h0.5l0,0.6h0C32.1,4.3,32.4,4,32.7,4c0.1,0,0.1,0,0.1,0v0.5c-0.1,0-0.1,0-0.2,0
		c-0.4,0-0.6,0.3-0.7,0.7c0,0.1,0,0.2,0,0.2v1.5h-0.5V5z"/>
	<path class="st1" d="M34,3.3c0,0.2-0.1,0.3-0.3,0.3c-0.2,0-0.3-0.1-0.3-0.3c0-0.2,0.1-0.3,0.3-0.3C33.9,3,34,3.1,34,3.3z M33.4,6.9
		V4.1h0.5v2.9H33.4z"/>
	<path class="st1" d="M34.8,5c0-0.4,0-0.7,0-0.9h0.5l0,0.5h0c0.2-0.3,0.5-0.6,1-0.6c0.7,0,1.2,0.6,1.2,1.4c0,1-0.6,1.5-1.3,1.5
		c-0.4,0-0.7-0.2-0.9-0.4h0v1.5h-0.5V5z M35.3,5.8c0,0.1,0,0.1,0,0.2c0.1,0.4,0.4,0.6,0.8,0.6c0.5,0,0.9-0.4,0.9-1.1
		c0-0.6-0.3-1.1-0.8-1.1c-0.4,0-0.7,0.3-0.8,0.6c0,0.1,0,0.1,0,0.2V5.8z"/>
	<path class="st1" d="M38.8,3.4v0.7h0.7v0.4h-0.7V6c0,0.4,0.1,0.6,0.4,0.6c0.1,0,0.2,0,0.3,0l0,0.4C39.4,7,39.2,7,39,7
		c-0.2,0-0.4-0.1-0.6-0.2c-0.1-0.2-0.2-0.4-0.2-0.7V4.5h-0.4V4.1h0.4V3.6L38.8,3.4z"/>
</g>
</svg>
